PathFileType	4	(X/Y/Z)	C:\Users\Basilio\Documents\Thesis Gigler\squatting_fais\c3dfiles\044\SLS_back_pre5\markers_experimental.trc
DataRate	CameraRate	NumFrames	NumMarkers	Units	OrigDataRate	OrigDataStartFrame	OrigNumFrames
200.000000	200.000000	4	63	mm	200.000000	1044	1393
Frame#	Time	FHD			LBHD			RBHD			C7			T10			LSHO			LUUPA			LMUPA			LDUPA			LLEP			LMEP			LUL			LRFIN			RSHO			RUPA1			RMUPA			RDUPA			RLEP			RMEP			RUL			RUFIN			LASI			RASI			USACR			LSACR			RSACR			LTHI1			LTHI2			LTHI3			LTHI4			LLFC			LMFC			LTIB1			LTIB2			LTIB3			LTIB4			LLMAL			LMMAL			LHEE			LMT1			LMT2			LMT5			RTHI			RTHI2			RTHI3			RTHI4			RLFC			RMFC			RTIB1			RTIB2			RTIB3			RTIB4			RLMAL			RHEE			RMT1			RMT2			RMT5			RMMAL			CLAV			LRAD			RRAD			*61			*62			
		X1	Y1	Z1	X2	Y2	Z2	X3	Y3	Z3	X4	Y4	Z4	X5	Y5	Z5	X6	Y6	Z6	X7	Y7	Z7	X8	Y8	Z8	X9	Y9	Z9	X10	Y10	Z10	X11	Y11	Z11	X12	Y12	Z12	X13	Y13	Z13	X14	Y14	Z14	X15	Y15	Z15	X16	Y16	Z16	X17	Y17	Z17	X18	Y18	Z18	X19	Y19	Z19	X20	Y20	Z20	X21	Y21	Z21	X22	Y22	Z22	X23	Y23	Z23	X24	Y24	Z24	X25	Y25	Z25	X26	Y26	Z26	X27	Y27	Z27	X28	Y28	Z28	X29	Y29	Z29	X30	Y30	Z30	X31	Y31	Z31	X32	Y32	Z32	X33	Y33	Z33	X34	Y34	Z34	X35	Y35	Z35	X36	Y36	Z36	X37	Y37	Z37	X38	Y38	Z38	X39	Y39	Z39	X40	Y40	Z40	X41	Y41	Z41	X42	Y42	Z42	X43	Y43	Z43	X44	Y44	Z44	X45	Y45	Z45	X46	Y46	Z46	X47	Y47	Z47	X48	Y48	Z48	X49	Y49	Z49	X50	Y50	Z50	X51	Y51	Z51	X52	Y52	Z52	X53	Y53	Z53	X54	Y54	Z54	X55	Y55	Z55	X56	Y56	Z56	X57	Y57	Z57	X58	Y58	Z58	X59	Y59	Z59	X60	Y60	Z60	X61	Y61	Z61	X62	Y62	Z62	X63	Y63	Z63	

1045	5.22	-170.5649719238282	1787.673950195313	-1043.48779296875	-298.2088317871094	1743.259643554688	-1124.213623046875	-344.8557128906251	1722.3857421875	-966.032897949219	-356.1246643066407	1563.46728515625	-1049.416625976563	-400.2969360351564	1268.521850585938	-1009.291076660156	-263.8855590820313	1569.54541015625	-1190.523193359375	-103.9211349487305	1544.831665039063	-1289.680419921875	-75.8883743286133	1559.884643554688	-1250.110473632813	-35.30908584594727	1543.567626953125	-1291.206176757813	23.4113998413086	1545.555786132813	-1281.128051757813	18.71179389953614	1469.270385742188	-1266.072143554688	269.2796936035157	1575.781860351563	-1140.454956054688	267.3848266601563	1599.773071289063	-1039.045776367188	-272.2185974121094	1573.787109375	-891.625915527344	-133.5848236083985	1569.765869140625	-772.2546997070315	-99.23822784423831	1580.39990234375	-808.2168579101565	-65.35009002685548	1574.5888671875	-759.1381835937501	-2.852324724197388	1580.801391601563	-761.9743041992189	0.4402379691600801	1497.62744140625	-760.1250000000001	251.6469116210938	1590.41259765625	-885.5622558593752	254.1061096191407	1565.744873046875	-999.2429199218752	-264.5752258300782	1043.54443359375	-1084.186645507813	-257.6271667480469	1050.216796875	-872.378601074219	-421.612518310547	1123.361083984375	-976.0198974609377	-433.3880004882814	1088.634643554688	-998.330505371094	-429.5905761718751	1097.141723632813	-941.8013305664065	-342.7317810058594	808.3682861328127	-1143.14404296875	-297.0043029785157	736.4571533203126	-1145.532470703125	-250.1992950439454	746.4326171875001	-1143.5673828125	-311.7162170410157	681.7377319335939	-1125.309936523438	-268.1158752441407	530.5262451171876	-1109.533813476563	-257.5711364746094	531.1840820312501	-987.294372558594	-251.5704040527344	359.3307800292969	-1023.170715332031	-281.2002258300782	308.9746093750001	-1090.921997070313	-250.9765014648438	308.5240478515626	-1054.320190429688	-273.1795349121094	235.4128875732422	-1018.847412109375	-333.3134765625001	122.0885238647461	-1056.361328125	-314.8069152832032	133.3126983642578	-972.4936523437502	-398.1321105957032	103.4341506958008	-1006.458923339844	-191.512435913086	59.56112670898439	-982.4189453125002	-190.3832702636719	59.00182342529298	-1029.041015625	-227.0631561279297	45.96906661987305	-1075.95947265625	-272.3264160156251	797.8987426757815	-758.3252563476564	-212.1958160400391	765.9893798828126	-753.6902465820314	-183.2773742675782	779.1651000976565	-764.2687377929689	-203.8556823730469	681.5689697265626	-760.2380371093751	-181.6333160400391	584.3010253906251	-760.3612670898439	-191.6708526611328	566.0638427734376	-876.648132324219	-179.9620056152344	450.3244018554689	-774.100769042969	-269.4093017578126	415.542938232422	-719.8549194335939	-233.9321746826172	392.2105407714845	-736.7572021484376	-244.7813720703126	339.1621093750001	-757.7207031250001	-360.8115844726563	217.6146240234376	-722.5061645507814	-430.3609924316407	202.5957794189454	-767.1094970703126	-241.4482574462891	113.9926986694336	-798.1118164062502	-236.2525482177735	107.6896667480469	-762.6911621093751	-274.2206726074219	100.7161865234375	-709.6223754882814	-343.0519409179688	217.3092346191407	-808.5981445312502	-218.9166412353516	1517.397094726563	-1044.817016601563	250.0525970458985	1530.664184570313	-1089.667724609375	nan	nan	nan	nan	nan	nan	nan	nan	nan	
1046	5.225000000000001	-170.77978515625	1787.410888671875	-1042.587768554688	-298.7361145019532	1743.70751953125	-1123.766357421875	-345.1693725585938	1722.5126953125	-965.829772949219	-356.7029724121094	1563.664428710938	-1049.190307617188	-400.3849182128907	1268.621459960938	-1009.079467773438	-264.3396606445313	1569.966918945313	-1190.2666015625	-104.3797683715821	1545.100952148438	-1289.34912109375	-76.1773147583008	1560.196899414063	-1249.792846679688	-35.66095352172852	1543.94677734375	-1290.717651367188	22.84063529968262	1545.846313476563	-1280.651245117188	18.48183250427246	1469.461059570313	-1265.82958984375	268.5162963867188	1576.806274414063	-1140.19970703125	266.1830749511719	1600.591918945313	-1038.311889648438	-272.7413330078126	1574.022094726563	-891.375427246094	-134.1239624023438	1570.177856445313	-772.047790527344	-99.83386993408206	1580.51123046875	-807.8513183593752	-66.09120941162111	1574.991455078125	-758.7562255859376	-3.337461233139039	1580.985595703125	-761.6110229492189	-0.3852336108684541	1497.93310546875	-759.7403564453126	250.9987792968751	1590.768432617188	-885.1475219726565	253.6275787353516	1566.26416015625	-998.7090454101565	-264.3279418945313	1043.789672851563	-1083.994384765625	-257.4588012695313	1050.57373046875	-872.198425292969	-421.2796020507814	1123.030639648438	-975.7549438476565	-433.1181030273439	1088.475219726563	-998.2110595703127	-429.4077148437501	1097.230224609375	-941.6787109375002	-342.3560791015626	808.5537719726565	-1142.872436523438	-296.6899719238282	736.6940917968751	-1145.280151367188	-249.8333129882813	746.5229492187501	-1143.328369140625	-311.5888671875001	681.9556884765626	-1125.009399414063	-268.0592956542969	530.5818481445314	-1109.294677734375	-257.6999206542969	531.1690673828126	-987.0642700195315	-251.5929412841797	359.4089965820313	-1023.01416015625	-280.5031433105469	309.6003417968751	-1090.69287109375	-250.9364624023438	308.5079345703126	-1054.173828125	-273.1543884277344	235.4268646240235	-1018.725036621094	-333.3194580078126	122.113754272461	-1056.3857421875	-314.8295898437501	133.3573303222657	-972.471374511719	-398.169647216797	103.462875366211	-1006.404602050781	-191.4412994384766	59.57350921630861	-982.3790283203127	-190.3340301513672	59.04811096191408	-1029.051391601563	-227.2289733886719	46.64199447631837	-1075.757934570313	-272.4981384277344	797.938659667969	-758.1480102539064	-212.5279846191407	765.8369750976564	-753.3560791015626	-183.6485443115235	778.7860107421877	-763.8854370117189	-204.1591796875001	681.3839111328126	-759.8452148437501	-182.2174835205078	583.9661865234376	-759.8272705078126	-192.6539459228516	565.6215820312501	-876.0017089843752	-179.685302734375	450.0489501953126	-773.5010986328127	-268.7472229003907	414.910125732422	-718.8931884765626	-232.9950561523438	391.414764404297	-736.0873413085939	-243.7976684570313	338.3033752441407	-756.9255981445314	-358.8269958496094	216.0805358886719	-721.2502441406251	-428.1079101562501	200.3211975097657	-765.3428955078126	-238.9988861083985	113.091781616211	-797.2479248046877	-233.8030090332032	106.7961654663086	-761.9242553710939	-271.3167419433594	99.33877563476565	-708.5877685546876	-341.3159790039063	215.750228881836	-807.3027954101565	-219.3691101074219	1517.815795898438	-1044.475830078125	249.6389465332032	1531.062622070313	-1089.18212890625	nan	nan	nan	nan	nan	nan	nan	nan	nan	
1047	5.23	-170.9902496337891	1787.575927734375	-1042.142456054688	-299.3347167968751	1743.904907226563	-1123.365844726563	-345.9187011718751	1722.856079101563	-965.4190063476565	-357.2310791015626	1563.86181640625	-1048.96435546875	-400.4360351562501	1268.64599609375	-1008.89208984375	-264.5336608886719	1570.391235351563	-1190.04248046875	-104.8514404296875	1545.37353515625	-1288.882568359375	-76.4401321411133	1560.716674804688	-1249.413940429688	-36.01402664184571	1544.55419921875	-1290.379760742188	22.43398475646973	1546.370239257813	-1280.202880859375	17.85165786743164	1470.1044921875	-1265.36181640625	268.3185729980469	1577.1279296875	-1139.653076171875	265.7570800781251	1601.323608398438	-1038.0693359375	-273.2995300292969	1574.134399414063	-891.1091308593752	-134.6436767578125	1570.408203125	-771.5256347656252	-100.7910537719727	1581.307983398438	-807.7169189453127	-66.58616638183595	1575.263671875	-758.3772583007814	-4.050409793853761	1581.302612304688	-761.1632690429689	-0.7896879315376284	1498.200317382813	-759.2438354492189	250.3610382080079	1591.464233398438	-884.8460083007815	253.0340881347657	1566.838745117188	-998.207214355469	-263.7218322753907	1044.116333007813	-1083.910400390625	-257.2995605468751	1050.724609375	-872.0250244140627	-421.1743774414064	1122.947875976563	-975.6000976562502	-432.779510498047	1088.39697265625	-998.0834960937502	-429.310028076172	1097.503173828125	-941.6194458007815	-341.9860229492188	808.6140747070315	-1142.616821289063	-296.6055297851563	736.9822387695314	-1144.938354492188	-249.5357208251954	746.5969238281251	-1142.954345703125	-311.3963623046876	682.1293334960939	-1124.7861328125	-268.5791015625001	530.9935913085939	-1109.082885742188	-257.7868041992188	531.2158203125001	-986.8854980468752	-251.6841888427735	359.3961181640626	-1022.817749023438	-280.5250549316407	309.4631042480469	-1090.519409179688	-251.0352020263672	308.9360351562501	-1053.91455078125	-273.1168212890626	235.5135955810547	-1018.635314941406	-333.3388061523438	122.1070632934571	-1056.286376953125	-314.8628540039063	133.3669738769532	-972.4509887695315	-398.1875610351564	103.4219284057617	-1006.444091796875	-191.4378662109375	59.51208114624025	-982.3865966796877	-190.3319091796875	59.04296493530275	-1029.036010742188	-227.2133789062501	46.6632308959961	-1075.874389648438	-272.6718750000001	797.9248046875002	-757.8854370117189	-212.9042053222657	765.5255126953126	-753.1013183593751	-184.0630950927735	778.5261230468752	-763.5051879882814	-204.6130065917969	680.8573608398439	-759.0925903320314	-182.851318359375	583.7401123046876	-759.4025268554689	-193.3202514648438	565.1557006835939	-875.601989746094	-179.3493194580078	449.5112915039064	-772.871765136719	-267.9702453613282	413.6752014160157	-718.1967163085939	-232.2764129638672	390.687225341797	-735.1013793945314	-242.535873413086	337.3560485839844	-756.1633911132814	-356.7982177734376	214.5903625488282	-719.9132690429689	-426.2373046875001	198.5254516601563	-763.8453369140626	-236.5713348388672	111.7848358154297	-796.564147949219	-231.6674194335938	106.0758438110352	-761.4073486328126	-268.5194091796876	98.28812408447268	-707.8549194335939	-339.5723571777344	214.0708923339844	-806.1198730468752	-219.8347930908204	1518.319580078125	-1044.132202148438	249.3740386962891	1531.701538085938	-1088.662353515625	nan	nan	nan	nan	nan	nan	nan	nan	nan	
1048	5.235	-171.1497192382813	1787.754638671875	-1041.876831054688	-300.3432312011719	1743.774169921875	-1123.084228515625	-346.4606323242188	1723.04833984375	-965.1049804687502	-357.6943664550782	1563.986083984375	-1048.773559570313	-400.5494384765626	1268.723876953125	-1008.697570800781	-264.4234619140626	1570.691650390625	-1189.783203125	-105.0792770385742	1545.985717773438	-1288.603515625	-76.83170318603517	1560.884643554688	-1249.11767578125	-36.37234115600587	1544.917846679688	-1290.209838867188	21.97612380981446	1546.671997070313	-1279.89404296875	17.41226768493653	1470.471801757813	-1264.781127929688	268.0346374511719	1577.611328125	-1139.111694335938	265.4332885742188	1601.277954101563	-1037.552124023438	-273.7413940429688	1574.259399414063	-890.833679199219	-135.2016143798828	1570.367919921875	-770.9402465820315	-101.0487060546875	1581.153442382813	-807.0292968750002	-67.15731048583986	1575.478271484375	-758.0125732421876	-4.601599216461183	1581.788818359375	-760.7820434570314	-1.28077781200409	1498.5556640625	-758.9042968750001	249.9119110107422	1591.918212890625	-884.372741699219	252.4744110107422	1567.3486328125	-997.7045898437502	-263.3498229980469	1044.291015625	-1083.692016601563	-257.1327209472657	1050.987060546875	-871.8584594726565	-421.013397216797	1122.973510742188	-975.409118652344	-432.4530334472657	1088.472045898438	-997.9578247070315	-429.1540527343751	1097.5087890625	-941.439880371094	-341.6577758789063	808.678649902344	-1142.420166015625	-296.5570678710938	737.1432495117189	-1144.78369140625	-248.6267089843751	746.2656860351564	-1142.64306640625	-311.2619934082032	682.3060913085939	-1124.521850585938	-267.8500061035157	530.7133178710939	-1108.891235351563	-257.8224182128907	531.2537841796876	-986.6243896484377	-251.7860565185547	359.3695678710938	-1022.723388671875	-281.0817260742188	308.9940490722657	-1090.429443359375	-250.9318237304688	308.9020385742188	-1053.63134765625	-273.0837402343751	235.5340881347657	-1018.556030273438	-333.3240051269532	122.1804885864258	-1056.234619140625	-314.9432678222657	133.2664031982422	-972.4282836914065	-398.1117553710939	103.3544845581055	-1006.490356445313	-191.4914703369141	59.58797454833986	-982.3909301757815	-190.3460388183594	59.02196121215822	-1028.998657226563	-227.0278320312501	45.93733596801759	-1075.930908203125	-272.8700561523438	797.8369750976565	-757.6622924804689	-213.1991577148438	765.3420410156251	-752.8998413085939	-184.2545776367188	778.3674926757815	-763.4722290039064	-205.3716888427735	680.6881103515626	-758.7984008789064	-183.3622589111328	583.1308593750001	-758.7928466796876	-194.0970611572266	564.6648559570314	-875.1524047851565	-179.2171630859375	449.0323486328126	-772.2962646484377	-267.2082519531251	412.5907287597657	-717.1475219726564	-231.4975280761719	389.4586486816407	-734.5114135742189	-241.5044403076172	336.3476257324219	-755.2870483398439	-354.5045776367188	212.7040710449219	-718.6936645507814	-424.050750732422	196.2440948486329	-762.3821411132814	-234.1498260498047	110.8340377807617	-795.9152832031252	-228.4522247314454	104.9401779174805	-760.5682373046876	-265.5566406250001	97.20014953613284	-706.9512329101564	-337.7449340820313	212.374496459961	-804.884948730469	-220.1751861572266	1518.817504882813	-1043.861572265625	248.9872741699219	1532.60009765625	-1088.278930664063	nan	nan	nan	nan	nan	nan	nan	nan	nan	
